<svg width="151" height="150" viewBox="0 0 151 150" fill="none" xmlns="http://www.w3.org/2000/svg">
<path d="M9.11719 110.764C21.1398 128.118 43.5038 138.335 68.3037 138.085C74.6364 144.29 81.351 148.198 87.8613 148.909C83.7005 149.625 79.4228 150 75.0576 150C46.5862 150 21.8199 134.135 9.11719 110.764ZM111.214 126.94C107.976 137.853 102.276 145.352 94.4688 147.444L94.0264 147.557C86.3347 149.397 77.8216 145.744 69.7178 138.061C76.7282 137.878 83.92 136.861 91.1162 134.933C98.3134 133.004 105.051 130.288 111.214 126.94ZM150.034 73.1299C150.049 73.7514 150.058 74.3748 150.058 75C150.058 107.341 129.587 134.901 100.896 145.43C106.193 141.562 110.063 134.812 112.449 126.256C134.007 114.097 148.252 94.1232 150.034 73.1299ZM5.04297 101.389C9.92477 107.626 18.9035 111.81 30.1172 113.83C36.6372 115.005 43.9855 115.464 51.8691 115.162C55.5499 122.141 59.6229 128.275 63.9004 133.334C65.0215 134.66 66.1619 135.914 67.3145 137.095C39.2243 137.068 14.5826 123.425 5.04297 101.389ZM114.236 98.6992C114.584 108.792 113.668 117.967 111.598 125.594C105.278 129.116 98.3231 131.966 90.8574 133.967C83.3927 135.967 75.9451 136.976 68.7119 137.085C63.1055 131.515 57.7222 124.029 52.9766 115.113C62.8494 114.649 73.5313 113.004 84.457 110.076C95.3821 107.149 105.455 103.233 114.236 98.6992ZM148.886 62.8496C151.641 86.7025 137.122 110.837 112.81 124.904C113.218 123.306 113.579 121.649 113.887 119.94C115.061 113.42 115.521 106.072 115.22 98.1885C122.199 94.5076 128.333 90.4349 133.393 86.1572C142.092 78.8019 147.775 70.6908 148.886 62.8496ZM34.9434 52.9189C35.4074 62.7917 37.0539 73.4728 39.9814 84.3984C42.9089 95.3237 46.8232 105.397 51.3574 114.179C25.8584 115.057 6.21646 107.858 2.61328 94.4111L2.50098 93.9688C-0.694903 80.6132 12.6676 64.7766 34.9434 52.9189ZM97.6533 35.8633C102.242 44.67 106.21 54.8208 109.168 65.8604L109.657 67.7324C112.307 78.117 113.789 88.2362 114.194 97.5957C105.388 102.184 95.2368 106.152 84.1973 109.11L82.3252 109.6C71.9398 112.25 61.82 113.732 52.46 114.137C48.1314 105.829 44.357 96.3239 41.46 86.0059L40.9473 84.1396C37.9891 73.0996 36.3504 62.3247 35.9209 52.4033C44.7276 47.8148 54.8784 43.8477 65.918 40.8896C76.9576 37.9316 87.7322 36.2929 97.6533 35.8633ZM98.7559 35.8203C124.256 34.9415 143.899 42.1415 147.502 55.5889L147.615 56.0303C150.812 69.3861 137.447 85.2221 115.171 97.0801C114.707 87.2077 113.061 76.5268 110.134 65.6016C107.206 54.6758 103.29 44.6025 98.7559 35.8203ZM37.3047 25.0947C36.8966 26.6935 36.5355 28.3504 36.2275 30.0596C35.0529 36.5796 34.5929 43.9278 34.8945 51.8115C27.9162 55.4922 21.7829 59.5654 16.7236 63.8428C8.02203 71.1996 2.33739 79.3125 1.22852 87.1553C-1.52869 63.3008 12.9905 39.1633 37.3047 25.0947ZM49.2168 4.57031C43.9211 8.4382 40.0516 15.1882 37.666 23.7422C16.1082 35.9003 1.86331 55.8746 0.0800781 76.8672C0.0649152 76.2466 0.0576172 75.6242 0.0576172 75C0.0576172 42.6596 20.527 15.0998 49.2168 4.57031ZM81.4014 12.9141C87.0081 18.4837 92.3918 25.9702 97.1377 34.8857C87.2653 35.3499 76.5844 36.9964 65.6592 39.9238C54.7335 42.8514 44.66 46.7663 35.8779 51.3008C35.5301 41.2062 36.4496 32.0304 38.5205 24.4033C44.8386 20.8817 51.7929 18.0342 59.2568 16.0342C66.7212 14.0341 74.1685 13.0232 81.4014 12.9141ZM82.7998 12.9043C110.887 12.9312 135.526 26.5731 145.067 48.6055C140.184 42.3718 131.208 38.1906 119.998 36.1709C113.478 34.9962 106.129 34.5352 98.2451 34.8369C94.5644 27.8585 90.4922 21.7243 86.2148 16.665C85.0936 15.3388 83.9525 14.0848 82.7998 12.9043ZM75.0576 0C103.531 0 128.298 15.8665 141 39.2402C128.978 21.8841 106.612 11.664 81.8105 11.9141C75.4778 5.70886 68.7633 1.80089 62.2529 1.08984C66.414 0.374035 70.6922 0 75.0576 0ZM56.0879 2.44336C63.7797 0.602424 72.2934 4.25529 80.3975 11.9385C73.3868 12.121 66.1945 13.1391 58.998 15.0674C51.8018 16.9956 45.0649 19.7105 38.9023 23.0576C42.1401 12.146 47.8396 4.64751 55.6465 2.55566L56.0879 2.44336Z" fill="black"/>
<path d="M88.7981 102.935H76.7458V48.5049H104.816C118.346 48.5049 123.322 52.315 123.322 62.8899V64.2895C123.322 72.3762 120.834 75.953 115.002 76.886V77.4303C120.678 78.4412 123.322 80.2296 123.322 89.7936V102.935H111.27V90.5712C111.27 84.5062 109.326 83.1066 102.172 83.1066H88.7981V102.935ZM102.25 58.5355H88.7981V73.1537H103.494C109.093 73.1537 111.27 71.4431 111.27 66.2334V65.7669C111.27 60.2461 109.093 58.5355 102.25 58.5355Z" fill="white"/>
<path d="M50.1392 103.712H49.4394C36.143 103.712 26.7345 99.4354 25.5681 87.9275H38.2424C39.4088 93.2149 44.5407 93.9147 49.7504 93.9147C56.9818 93.9147 60.6363 92.1263 60.6363 87.3054V86.6056C60.6363 82.64 58.6924 80.9294 51.7721 80.6183L44.3075 80.3073C32.3329 79.8408 26.5012 75.1754 26.5012 65.4558V64.9115C26.5012 53.4813 33.8103 47.7273 48.273 47.7273H49.2061C62.1137 47.7273 71.2112 53.0925 72.2221 64.0562H59.5477C58.3814 58.9242 54.4158 57.5246 48.5063 57.5246C41.7415 57.5246 38.7867 59.3908 38.7867 63.9007V64.2895C38.7867 68.255 40.6529 69.9657 47.651 70.2767L55.0379 70.51C67.0901 71.0543 72.8441 75.6419 72.8441 85.4393V86.1391C72.8441 98.9689 63.9021 103.712 50.1392 103.712Z" fill="white"/>
</svg>
