<svg width="150" height="150" viewBox="0 0 150 150" fill="none" xmlns="http://www.w3.org/2000/svg">
<path fill-rule="evenodd" clip-rule="evenodd" d="M9.05957 110.764C21.0822 128.118 43.4462 138.335 68.2461 138.085C74.5788 144.29 81.2934 148.198 87.8037 148.909C83.6429 149.625 79.3652 150 75 150C46.5285 150 21.7623 134.135 9.05957 110.764ZM111.156 126.94C107.919 137.853 102.218 145.352 94.4111 147.444L93.9688 147.557C86.2771 149.397 77.764 145.744 69.6602 138.061C76.6705 137.878 83.8624 136.861 91.0586 134.933C98.2558 133.004 104.993 130.288 111.156 126.94ZM149.977 73.1299C149.992 73.7514 150 74.3748 150 75C150 107.341 129.529 134.901 100.838 145.43C106.135 141.562 110.006 134.812 112.392 126.256C133.95 114.097 148.195 94.1232 149.977 73.1299ZM4.98535 101.389C9.86715 107.626 18.8459 111.81 30.0596 113.83C36.5796 115.005 43.9279 115.464 51.8115 115.162C55.4923 122.141 59.5653 128.275 63.8428 133.334C64.9638 134.66 66.1043 135.914 67.2568 137.095C39.1667 137.068 14.525 123.425 4.98535 101.389ZM114.179 98.6992C114.526 108.792 113.61 117.967 111.54 125.594C105.221 129.116 98.2655 131.966 90.7998 133.967C83.335 135.967 75.8875 136.976 68.6543 137.085C63.0479 131.515 57.6646 124.029 52.9189 115.113C62.7918 114.649 73.4736 113.004 84.3994 110.076C95.3245 107.149 105.397 103.233 114.179 98.6992ZM148.828 62.8496C151.583 86.7025 137.064 110.837 112.752 124.904C113.16 123.306 113.521 121.649 113.829 119.94C115.004 113.42 115.464 106.072 115.162 98.1885C122.141 94.5076 128.275 90.4349 133.335 86.1572C142.035 78.8019 147.718 70.6908 148.828 62.8496ZM34.8857 52.9189C35.3498 62.7917 36.9963 73.4728 39.9238 84.3984C42.8512 95.3237 46.7656 105.397 51.2998 114.179C25.8008 115.057 6.15884 107.858 2.55566 94.4111L2.44336 93.9688C-0.752521 80.6132 12.61 64.7766 34.8857 52.9189ZM97.5957 35.8633C102.184 44.67 106.152 54.8208 109.11 65.8604L109.6 67.7324C112.25 78.117 113.731 88.2362 114.137 97.5957C105.33 102.184 95.1792 106.152 84.1396 109.11L82.2676 109.6C71.8822 112.25 61.7624 113.732 52.4023 114.137C48.0738 105.829 44.2994 96.3239 41.4023 86.0059L40.8896 84.1396C37.9315 73.0996 36.2928 62.3247 35.8633 52.4033C44.67 47.8148 54.8208 43.8477 65.8604 40.8896C76.8999 37.9316 87.6746 36.2929 97.5957 35.8633ZM98.6982 35.8203C124.199 34.9415 143.841 42.1415 147.444 55.5889L147.558 56.0303C150.754 69.3861 137.39 85.2221 115.113 97.0801C114.649 87.2076 113.004 76.5268 110.076 65.6016C107.149 54.6758 103.233 44.6025 98.6982 35.8203ZM37.2471 25.0947C36.839 26.6935 36.4779 28.3504 36.1699 30.0596C34.9953 36.5796 34.5353 43.9278 34.8369 51.8115C27.8586 55.4922 21.7252 59.5654 16.666 63.8428C7.96441 71.1996 2.27977 79.3125 1.1709 87.1553C-1.58631 63.3008 12.9329 39.1633 37.2471 25.0947ZM49.1592 4.57031C43.8635 8.4382 39.994 15.1882 37.6084 23.7422C16.0506 35.9003 1.8067 55.8746 0.0234375 76.8672C0.00827422 76.2466 0 75.6242 0 75C0 42.6596 20.4694 15.0998 49.1592 4.57031ZM81.3438 12.9141C86.9505 18.4837 92.3342 25.9702 97.0801 34.8857C87.2077 35.3499 76.5268 36.9964 65.6016 39.9238C54.6759 42.8514 44.6024 46.7663 35.8203 51.3008C35.4725 41.2062 36.392 32.0304 38.4629 24.4033C44.781 20.8817 51.7353 18.0342 59.1992 16.0342C66.6636 14.0341 74.1109 13.0232 81.3438 12.9141ZM82.7422 12.9043C110.829 12.9312 135.468 26.5731 145.01 48.6055C140.127 42.3718 131.15 38.1906 119.94 36.1709C113.42 34.9962 106.072 34.5352 98.1875 34.8369C94.5068 27.8585 90.4346 21.7243 86.1572 16.665C85.036 15.3388 83.8949 14.0848 82.7422 12.9043ZM75 0C103.473 0 128.24 15.8665 140.942 39.2402C128.92 21.8841 106.555 11.664 81.7529 11.9141C75.4202 5.70886 68.7057 1.80089 62.1953 1.08984C66.3564 0.374035 70.6346 0 75 0ZM56.0303 2.44336C63.7221 0.602424 72.2357 4.25529 80.3398 11.9385C73.3292 12.121 66.1369 13.1391 58.9404 15.0674C51.7442 16.9956 45.0072 19.7105 38.8447 23.0576C42.0825 12.146 47.782 4.64751 55.5889 2.55566L56.0303 2.44336Z" fill="white"/>
<path d="M88.7981 102.935H76.7458V48.5049H104.816C118.346 48.5049 123.322 52.315 123.322 62.8899V64.2895C123.322 72.3762 120.834 75.953 115.002 76.886V77.4303C120.678 78.4412 123.322 80.2296 123.322 89.7936V102.935H111.27V90.5712C111.27 84.5062 109.326 83.1066 102.172 83.1066H88.7981V102.935ZM102.25 58.5355H88.7981V73.1537H103.494C109.093 73.1537 111.27 71.4431 111.27 66.2334V65.7669C111.27 60.2461 109.093 58.5355 102.25 58.5355Z" fill="#0C0E10"/>
<path d="M50.1392 103.712H49.4394C36.143 103.712 26.7345 99.4354 25.5681 87.9275H38.2424C39.4088 93.2149 44.5407 93.9147 49.7504 93.9147C56.9818 93.9147 60.6363 92.1263 60.6363 87.3054V86.6056C60.6363 82.64 58.6924 80.9294 51.7721 80.6183L44.3075 80.3073C32.3329 79.8408 26.5012 75.1754 26.5012 65.4558V64.9115C26.5012 53.4813 33.8103 47.7273 48.273 47.7273H49.2061C62.1137 47.7273 71.2112 53.0925 72.2221 64.0562H59.5477C58.3814 58.9242 54.4158 57.5246 48.5063 57.5246C41.7415 57.5246 38.7867 59.3908 38.7867 63.9007V64.2895C38.7867 68.255 40.6529 69.9657 47.651 70.2767L55.0379 70.51C67.0901 71.0543 72.8441 75.6419 72.8441 85.4393V86.1391C72.8441 98.9689 63.9021 103.712 50.1392 103.712Z" fill="#0C0E10"/>
</svg>
