<svg width="120" height="120" viewBox="0 0 120 120" fill="none" xmlns="http://www.w3.org/2000/svg">
<rect width="120" height="120" rx="20" fill="url(#paint0_linear_139_602)"/>
<rect width="120" height="120" rx="20" fill="#09090B"/>
<path d="M23.0654 83.9189C30.5007 92.537 42.6026 97.5078 55.8652 97.4209C59.178 100.637 62.7006 102.824 66.1895 103.564C64.167 103.849 62.101 104 60 104C44.5196 104 30.9081 96.0045 23.0654 83.9189ZM81.04 91.0312C79.114 97.1298 75.8333 101.31 71.3877 102.501C66.9422 103.692 62.0109 101.713 57.2939 97.3945C61.3101 97.2588 65.4203 96.6603 69.5283 95.5596C73.6361 94.4589 77.4942 92.9217 81.04 91.0312ZM103.942 62.2607C103.056 79.783 91.9174 94.5983 76.4062 100.836C79.0653 98.4507 81.0277 94.7899 82.291 90.3398C93.8154 83.7864 101.808 73.4366 103.942 62.2607ZM19.5449 76.8154C22.6337 79.9901 27.6074 82.1148 33.5615 83.1875C37.3465 83.8694 41.5977 84.1417 46.1523 83.9834C48.2927 88.0075 50.6553 91.553 53.1387 94.4902C53.7091 95.165 54.29 95.8091 54.877 96.4229C39.2126 96.229 25.4621 88.8091 19.5449 76.8154ZM83 74.3604C83.1614 80.1018 82.6189 85.3228 81.4355 89.6816C77.7286 91.7481 73.6489 93.4203 69.2695 94.5938L68.1689 94.876C64.1588 95.8623 60.1654 96.3633 56.2773 96.4219C53.0733 93.2387 49.9925 88.9893 47.2617 83.9365C53.0323 83.6502 59.2592 82.6822 65.6211 80.9775C71.9829 79.2729 77.8594 76.9976 83 74.3604ZM103.441 54.3408C104.311 67.6845 96.1147 80.9835 82.6475 88.9824C82.849 88.1571 83.0308 87.3084 83.1875 86.4385C83.8695 82.6532 84.1418 78.4016 83.9834 73.8467C88.0074 71.7063 91.553 69.3446 94.4902 66.8613C99.1081 62.9571 102.352 58.6326 103.441 54.3408ZM36.0625 47.2617C36.3489 53.0322 37.3178 59.2593 39.0225 65.6211C40.7271 71.9828 43.0015 77.8595 45.6387 83C30.902 83.4141 19.5912 79.196 17.499 71.3877C15.4072 63.5795 23.0933 54.2711 36.0625 47.2617ZM73.2549 37.04C75.9469 42.2067 78.2763 48.161 80.0117 54.6377L80.2988 55.7363C81.8534 61.8277 82.7231 67.7637 82.9609 73.2539C77.794 75.9462 71.8395 78.2762 65.3623 80.0117L64.2637 80.2988C58.1715 81.8536 52.2349 82.7232 46.7441 82.9609C44.0521 77.7942 41.7238 71.8391 39.9883 65.3623C38.2529 58.8858 37.2911 52.5645 37.0391 46.7441C42.2058 44.0521 48.1609 41.7238 54.6377 39.9883C61.1138 38.253 67.4349 37.2922 73.2549 37.04ZM74.3604 36.999C89.0025 36.5871 100.26 40.7498 102.457 48.4619C102.471 48.5119 102.487 48.5612 102.5 48.6113C102.506 48.6352 102.511 48.6598 102.518 48.6836C104.544 56.4773 96.8667 65.749 83.9365 72.7373C83.6501 66.967 82.6821 60.7404 80.9775 54.3789C79.2728 48.0168 76.9978 42.1398 74.3604 36.999ZM37.3516 31.0166C37.1499 31.8421 36.9693 32.6914 36.8125 33.5615C36.1306 37.3468 35.8572 41.5984 36.0156 46.1533C31.9921 48.2935 28.4467 50.6556 25.5098 53.1387C20.8904 57.0443 17.6447 61.37 16.5566 65.6631C15.685 52.3181 23.8829 39.0162 37.3516 31.0166ZM43.5928 19.1631C40.9338 21.5482 38.9713 25.2093 37.708 29.6592C26.1868 36.2107 18.1943 46.5573 16.0576 57.7295C16.9481 40.2116 28.0847 25.3996 43.5928 19.1631ZM63.7217 23.5762C66.9261 26.7593 70.0063 31.0095 72.7373 36.0625C66.9671 36.349 60.7403 37.3179 54.3789 39.0225C48.0169 40.7272 42.1397 43.0013 36.999 45.6387C36.8376 39.8968 37.3809 34.6754 38.5645 30.3164C42.2712 28.2503 46.3514 26.5796 50.7305 25.4062C55.1095 24.2329 59.4784 23.6402 63.7217 23.5762ZM65.1221 23.5752C80.7844 23.7687 94.5326 31.1889 100.451 43.1797C97.3621 40.0077 92.3897 37.8857 86.4385 36.8135C82.6532 36.1315 78.4017 35.8572 73.8467 36.0156C71.7064 31.992 69.3444 28.4468 66.8613 25.5098C66.2904 24.8345 65.7095 24.1894 65.1221 23.5752ZM60 16C75.4804 16 89.0919 23.9955 96.9346 36.0811C89.4992 27.4627 77.3968 22.491 64.1338 22.5781C60.8207 19.3621 57.2978 17.1744 53.8086 16.4346C55.8316 16.1497 57.8984 16 60 16ZM48.6113 17.499C53.0565 16.3079 57.9873 18.287 62.7041 22.6045C58.6885 22.7404 54.5791 23.3398 50.4717 24.4404C46.3642 25.541 42.5056 27.0767 38.96 28.9668C40.8859 22.8695 44.1664 18.6903 48.6113 17.499Z" fill="white"/>
<path d="M68.0948 76.3882H61.0242V44.4562H77.492C85.4294 44.4562 88.3489 46.6914 88.3489 52.8954V53.7165C88.3489 58.4607 86.8891 60.5591 83.4678 61.1065V61.4258C86.7979 62.0188 88.3489 63.068 88.3489 68.6789V76.3882H81.2782V69.1351C81.2782 65.5769 80.1378 64.7558 75.941 64.7558H68.0948V76.3882ZM75.9866 50.3408H68.0948V58.9168H76.7165C80.0009 58.9168 81.2782 57.9133 81.2782 54.8569V54.5832C81.2782 51.3444 80.0009 50.3408 75.9866 50.3408Z" fill="#0C0E10"/>
<path d="M45.415 76.8444H45.0045C37.2039 76.8444 31.6843 74.3354 31 67.5841H38.4356C39.1199 70.6861 42.1306 71.0966 45.187 71.0966C49.4294 71.0966 51.5734 70.0474 51.5734 67.2192V66.8086C51.5734 64.4821 50.4329 63.4786 46.373 63.2961L41.9937 63.1136C34.9687 62.8399 31.5474 60.1029 31.5474 54.4007V54.0814C31.5474 47.3757 35.8354 44 44.3202 44H44.8676C52.4401 44 57.7773 47.1476 58.3703 53.5796H50.9347C50.2505 50.5689 47.924 49.7478 44.4571 49.7478C40.4884 49.7478 38.7549 50.8426 38.7549 53.4884V53.7165C38.7549 56.0429 39.8497 57.0465 43.9553 57.229L48.2889 57.3658C55.3596 57.6852 58.7353 60.3766 58.7353 66.1243V66.5349C58.7353 74.0617 53.4893 76.8444 45.415 76.8444Z" fill="#0C0E10"/>
<defs>
<linearGradient id="paint0_linear_139_602" x1="60" y1="0" x2="60" y2="120" gradientUnits="userSpaceOnUse">
<stop stop-color="#3B5BFF"/>
<stop offset="1" stop-color="#3832DA"/>
</linearGradient>
</defs>
</svg>
